<?xml version="1.0" encoding="UTF-8" standalone="no"?>
<svg width="19px" height="22px" viewBox="0 0 19 22" version="1.1" xmlns="http://www.w3.org/2000/svg" xmlns:xlink="http://www.w3.org/1999/xlink">
    <!-- Generator: Sketch 41.2 (35397) - http://www.bohemiancoding.com/sketch -->
    <title>localization-orientation-tool-of-compass-with-cardinal-points</title>
    <desc>Created with Sketch.</desc>
    <defs>
        <polygon id="path-1" points="9.43461406 22 0.0020625 22 0.0020625 0.001375 18.8671656 0.001375 18.8671656 22"></polygon>
    </defs>
    <g id="Page-1" stroke="none" stroke-width="1" fill="none" fill-rule="evenodd">
        <g id="Discover" transform="translate(-30.000000, -531.000000)">
            <g id="localization-orientation-tool-of-compass-with-cardinal-points" transform="translate(30.000000, 531.000000)">
                <mask id="mask-2" fill="white">
                    <use xlink:href="#path-1"></use>
                </mask>
                <g id="Clip-2"></g>
                <path d="M11.7959875,12.1711562 L13.3980688,8.60193125 L9.82884375,10.2040125 C9.09070938,10.0815344 8.30613438,10.3022906 7.73774375,10.8705437 C7.16945625,11.4388312 6.94873438,12.2234062 7.07117813,12.9616437 L5.46913125,16.5308687 L9.03835625,14.9288219 C9.77659375,15.0512656 10.5611688,14.8305437 11.1294563,14.2621187 C11.6978469,13.6938656 11.9184656,12.9092906 11.7959875,12.1711562 L11.7959875,12.1711562 Z M10.0032625,13.1359594 C9.68917813,13.4500094 9.178125,13.4500094 8.86404063,13.1359594 C8.54999063,12.821875 8.54999063,12.3108219 8.86404063,11.9967375 C9.178125,11.6827906 9.68917813,11.6826531 10.0032625,11.9967375 C10.3172094,12.3108219 10.3172094,12.821875 10.0032625,13.1359594 L10.0032625,13.1359594 Z M9.43366875,17.1595875 L9.9911625,18.4008344 L8.87600313,18.4008344 L9.43366875,17.1595875 Z M9.43366875,7.96681875 L8.87614063,6.7255375 L9.9911625,6.7255375 L9.43366875,7.96681875 Z M14.0299844,12.5631344 L15.2712312,12.0056063 L15.2712312,13.1206281 L14.0299844,12.5631344 Z M4.83721562,12.5631344 L3.59593438,13.1206281 L3.59593438,12.0056063 L4.83721562,12.5631344 Z M11.652575,3.39882812 C11.7840594,3.10045312 11.8584469,2.77134687 11.8584469,2.42491563 C11.8584469,1.0879 10.77065,0 9.43366875,0 C8.09651562,0 7.00889062,1.0879 7.00889062,2.42491563 C7.00889062,2.77134687 7.08314062,3.10045312 7.21459062,3.39882812 C3.08044687,4.399725 0,8.129 0,12.5663312 C0,17.7681281 4.23187187,22 9.43366875,22 C14.6352937,22 18.8671656,17.7681281 18.8671656,12.5663312 C18.8671656,8.129 15.7867187,4.399725 11.652575,3.39882812 L11.652575,3.39882812 Z M8.4910375,2.42491563 C8.4910375,1.90513125 8.91385,1.48214687 9.43366875,1.48214687 C9.95331562,1.48214687 10.3762656,1.90513125 10.3762656,2.42491563 C10.3762656,2.71978437 10.2372875,2.98014062 10.0247469,3.15321875 C9.82898125,3.14101562 9.63225313,3.13283437 9.43366875,3.13283437 C9.2349125,3.13283437 9.03821875,3.14101562 8.84255625,3.15321875 C8.62987813,2.98014062 8.4910375,2.71978437 8.4910375,2.42491563 L8.4910375,2.42491563 Z M9.43366875,19.4249687 C5.65173125,19.4249687 2.57489375,16.3481313 2.57489375,12.5663312 C2.57489375,8.78456562 5.65173125,5.70772813 9.43366875,5.70772813 C13.2154344,5.70772813 16.2922719,8.78470313 16.2922719,12.5663312 C16.2922719,16.3481313 13.2154344,19.4249687 9.43366875,19.4249687 L9.43366875,19.4249687 Z" id="Fill-1" fill="#FFFFFF" mask="url(#mask-2)"></path>
            </g>
        </g>
    </g>
</svg>