<?xml version="1.0" encoding="UTF-8" standalone="no"?>
<svg width="319px" height="165px" viewBox="0 0 319 165" version="1.1" xmlns="http://www.w3.org/2000/svg" xmlns:xlink="http://www.w3.org/1999/xlink">
    <!-- Generator: Sketch 41.2 (35397) - http://www.bohemiancoding.com/sketch -->
    <title>Top</title>
    <desc>Created with Sketch.</desc>
    <defs>
        <polygon id="path-1" points="0 119.97597 84.1228235 119.97597 84.1228235 0.000150187735 0 0.000150187735"></polygon>
    </defs>
    <g id="Page-1" stroke="none" stroke-width="1" fill="none" fill-rule="evenodd">
        <g id="Login-Sreen" transform="translate(-1.000000, -4.000000)">
            <g id="Top" transform="translate(1.000000, 4.000000)">
                <g id="Page-1">
                    <polygon id="Fill-1" fill="#7F8EAD" points="34.5954203 87.0950525 27.365706 53.9380655 1.24675325e-05 85.3499719 1.24675325e-05 116.148767 129.304407 116.148767 115.257612 68.8209745 89.99008 101.070284 74.5303813 34.0780758"></polygon>
                    <polygon id="Fill-2" fill="#909FC1" points="27.365706 53.9380655 45.9355553 72.0400499 34.5954203 87.0950525"></polygon>
                    <polygon id="Fill-3" fill="#8D9DBB" points="159.922556 0.000157922078 94.8939844 69.3196384 74.5303481 34.07808 89.9900883 101.070288 129.304374 116.148771 159.993704 116.148771"></polygon>
                </g>
                <g id="Page-1-Copy" transform="translate(239.000000, 58.500000) scale(-1, 1) translate(-239.000000, -58.500000) translate(159.000000, 0.000000)">
                    <polygon id="Fill-1" fill="#7F8EAD" points="34.5954203 87.0950525 27.365706 53.9380655 1.24675325e-05 85.3499719 1.24675325e-05 116.148767 129.304407 116.148767 115.257612 68.8209745 89.99008 101.070284 74.5303813 34.0780758"></polygon>
                    <polygon id="Fill-2" fill="#909FC1" points="27.365706 53.9380655 45.9355553 72.0400499 34.5954203 87.0950525"></polygon>
                    <polygon id="Fill-3" fill="#8D9DBB" points="159.922556 0.000157922078 94.8939844 69.3196384 74.5303481 34.07808 89.9900883 101.070288 129.304374 116.148771 159.993704 116.148771"></polygon>
                </g>
                <g id="SkateMate" transform="translate(110.000000, 54.000000)" fill="#FFFFFF">
                    <path d="M49.8065873,28.7679412 C49.8068247,28.769201 49.8070623,28.7704607 49.8073002,28.7717203 C50.0731877,30.1795979 50.675857,31.3689938 51.6153262,32.3399439 C52.5547954,33.3108939 53.8576246,33.8449085 55.523853,33.9420035 C56.6937581,34.0067335 57.721841,33.7397262 58.6081327,33.1409737 C59.4944244,32.5422211 60.2566238,31.7735639 60.8947538,30.8349788 C60.9656572,31.6117389 61.1429129,32.2671203 61.4265262,32.8011429 C61.7101395,33.3351654 62.1710043,33.6830839 62.8091343,33.8449089 C63.6245227,34.0390989 64.4664872,33.8125473 65.335053,33.1652473 C66.2036189,32.5179473 67.0367206,31.6926521 67.8343831,30.6893371 C68.1547398,30.2863863 68.4622287,29.8743024 68.756851,29.4530833 C68.7103273,29.9924174 68.7041758,30.5015943 68.7383961,30.9806206 C68.7915736,31.7250157 68.9865549,32.3561237 69.3233457,32.8739637 C69.6601366,33.3918038 70.1830408,33.7316312 70.8920742,33.8934562 C71.6720109,34.0876462 72.487387,33.8530035 73.338227,33.1895209 C74.189067,32.5260384 75.0044432,31.684561 75.7843799,30.6650634 C76.4893316,29.7435828 77.1363496,28.789064 77.7254494,27.8014837 C77.9205036,29.17671 78.416786,30.4063255 79.2143116,31.4903668 C80.0119741,32.5745944 81.1552732,33.2947049 82.6442433,33.6507199 C84.168665,34.0390999 85.6576127,34.0552822 87.1111311,33.6992672 C88.5646495,33.3432521 89.9117926,32.7364175 91.152601,31.8787449 C92.3934094,31.0210724 94.0612025,29.8628002 95.0006717,28.6491127 C95.4718706,28.0403772 95.8873277,27.4133275 96.2470456,26.7679589 C96.1807422,29.7331042 95.865204,32.2943492 95.3004254,34.4517497 C94.6268437,37.0247673 93.713977,39.1527342 92.5617978,40.8357143 C91.4096185,42.5186944 90.0802009,43.8051839 88.5735051,44.6952215 C87.0668092,45.585259 85.515822,46.208276 83.9204969,46.564291 C82.3251719,46.920306 80.7387336,47.0740374 79.1611343,47.0254899 C77.5835351,46.9769424 76.1389013,46.8555755 74.8271896,46.6613855 C73.1255096,46.4024655 71.1934227,45.997909 69.0308709,45.447704 C66.8683192,44.897499 64.5817209,44.2906643 62.1710075,43.6271818 C59.7602941,42.9636992 57.2787146,42.2678621 54.7261945,41.5396496 C52.1736744,40.8114371 49.6743693,40.1317822 47.2282043,39.5006647 C44.7820392,38.8695472 42.4334014,38.3112593 40.1822205,37.8257842 C37.9310396,37.3403092 35.9191876,37.0004818 34.1466043,36.8062918 C31.4522775,36.5150068 29.1922676,36.7496495 27.3665067,37.510227 C25.5407458,38.2708046 24.1404259,39.3388336 23.1655051,40.7143462 C22.1905842,42.0898588 21.6410916,43.6433555 21.5170108,45.3748831 C21.3929299,47.1064107 21.6854018,48.7974567 22.3944351,50.4480717 C22.4298868,48.9916467 22.9439283,47.8427064 23.936575,47.0012163 C24.9292217,46.1597263 26.2852276,45.5448005 28.0046335,45.1564204 C29.7240394,44.7680404 31.7181658,44.5819445 33.9870725,44.598127 C36.2559793,44.6143095 38.7021077,44.7518587 41.3255311,45.0107787 C43.9489545,45.2696987 46.6609664,45.6176172 49.4616482,46.0545447 C52.2623299,46.4914723 55.0452441,46.9364844 57.8104742,47.3895944 C60.5757043,47.8427044 63.2434022,48.2877165 65.8136482,48.724644 C68.3838941,49.1615716 70.7502574,49.4933078 72.9128091,49.7198629 C77.2024609,50.2053379 80.8007512,50.0354242 83.707788,49.2101166 C86.6148248,48.3848091 88.9989136,47.1630486 90.8601262,45.5447985 C92.7213388,43.9265484 94.1216586,42.0655888 95.0611278,39.9618637 C96.000597,37.8581386 96.656443,35.7787184 97.0286856,33.7235408 C97.4009281,31.6683632 97.569321,29.7912212 97.5338693,28.0920587 C97.4984176,26.3928961 97.4097898,25.1387711 97.2679831,24.329646 C97.2530615,24.2751564 97.2373549,24.2260421 97.2208633,24.1823033 C97.1774826,23.9930742 97.0489571,23.8718605 96.8352863,23.8186603 C96.445318,23.7215653 96.1262578,23.9481169 95.8780961,24.498322 C95.8780961,24.498322 94.8404394,26.6127881 93.5259326,28.0319279 C92.2114259,29.4510676 91.2057836,30.009672 90.1422335,30.6893371 C89.0786835,31.3690021 87.9974238,31.8463787 86.8984221,32.1214812 C85.7994204,32.3965837 84.7890631,32.4208571 83.8673197,32.1943021 C83.0164797,31.9677471 82.3606337,31.5308261 81.899762,30.8835261 C81.4388903,30.2362261 81.1198301,29.4918422 80.9425717,28.6503522 C82.3960901,29.6536672 83.8052728,30.1229527 85.170162,30.0582227 C86.5350512,29.9934927 87.7492526,29.5808451 88.8128026,28.8202676 C89.8763527,28.05969 90.7714938,27.0644811 91.498253,25.8346111 C92.2250122,24.604741 92.6770142,23.3101604 92.8542725,21.9508303 C92.9606276,21.1093403 92.9606276,20.3002274 92.8542725,19.5234673 C92.7479175,18.7467073 92.5086224,18.0508702 92.1363799,17.4359352 C91.7641374,16.8210001 91.2412331,16.3193501 90.5676514,15.9309701 C89.8940697,15.5425901 89.060968,15.3160385 88.0683213,15.2513085 C86.2957379,15.1865785 84.7270252,15.534497 83.362136,16.2950746 C81.9972468,17.0556521 80.8628104,18.0589521 79.9587929,19.3050047 C79.0547753,20.5510572 78.4077921,21.9346403 78.0178238,23.4557954 C77.855065,24.0906709 77.7432537,24.7128578 77.6823897,25.322359 C77.3114044,25.9864215 76.918034,26.6750062 76.5022725,27.3881234 C75.91732,28.3914384 75.3146507,29.305736 74.6942465,30.1310436 C74.0738423,30.9563511 73.471173,31.6117326 72.8862205,32.0972076 C72.301268,32.5826826 71.7783637,32.7606875 71.3174921,32.6312274 C71.0338787,32.5664974 70.9186625,32.2994902 70.97184,31.8301977 C71.0250175,31.3609051 71.1668221,30.7702527 71.3972579,30.0582227 C71.6276938,29.3461926 71.9290284,28.5451709 72.3012709,27.6551333 C72.6735134,26.7650958 73.0634759,25.8831627 73.4711701,25.0093077 C73.8788643,24.1354526 74.2865524,23.2858841 74.6942465,22.4605765 C75.1019407,21.635269 75.4298637,20.9313408 75.6780254,20.3487707 C75.7843804,20.0898507 75.9882244,19.6448386 76.2895636,19.0137211 C76.5909028,18.3826036 76.9365514,17.6463108 77.3265197,16.8048208 C77.716488,15.9633307 78.1507645,15.0571243 78.629362,14.0861742 C79.1079595,13.1152242 79.577687,12.1442887 80.0385587,11.1733387 L88.8128026,11.1733387 C89.6636427,11.1733387 90.3815282,11.003425 90.9664807,10.6635924 C91.5514332,10.3237599 91.9591213,9.95156798 92.1895571,9.54700546 C92.4199929,9.14244294 92.4465813,8.77025101 92.269323,8.43041849 C92.0920646,8.09058597 91.6843766,7.92067227 91.0462465,7.92067227 L81.5806986,7.92067227 C81.8643119,7.30573723 82.1124699,6.76363159 82.3251799,6.29433907 C82.5378899,5.82504654 82.7151456,5.46094574 82.8569522,5.20202572 C83.1051139,4.6518207 83.1051139,3.98834811 82.8569522,3.21158808 C82.6087905,2.43482804 82.2188281,1.83608449 81.687053,1.41533947 C81.155278,0.994594446 80.5526087,0.873227511 79.879027,1.05123502 C79.2054453,1.22924253 78.5673249,1.99789979 77.9646465,3.35722985 C77.7873882,3.71324487 77.5303675,4.30389729 77.1935766,5.12920483 C76.8567858,5.95451237 76.4756861,6.88499221 76.050266,7.92067227 L73.0191636,7.92067227 C72.4873886,7.95303727 71.9644843,8.13913323 71.4504351,8.47896575 C70.936386,8.81879827 70.5464235,9.1909902 70.280536,9.59555272 C70.0146485,10.0001152 69.908295,10.3642161 69.9614725,10.6878661 C70.01465,11.0115161 70.3425731,11.1733387 70.9452514,11.1733387 L74.7740124,11.1733387 C74.384044,12.2090187 73.9940815,13.228501 73.6041132,14.231816 C73.2141449,15.2351311 72.8596335,16.1575198 72.5405685,16.9990098 C72.2215035,17.8404999 71.9467572,18.5767926 71.7163213,19.2079101 C71.4858855,19.8390277 71.3174926,20.2840398 71.2111376,20.5429598 C70.9275242,21.2873548 70.6261896,22.11265 70.3071246,23.01887 C70.021146,23.8311168 69.7636512,24.6563527 69.534634,25.4945978 C69.2022006,26.0979548 68.8658865,26.7048538 68.5256872,27.3153025 C68.011638,28.2377051 67.479871,29.0549091 66.9303701,29.7669391 C66.3808693,30.4789692 65.8313766,31.0291659 65.2818758,31.417546 C64.7323749,31.805926 64.2094707,31.9192018 63.7131473,31.7573768 C63.3940823,31.6602818 63.2611406,31.3285455 63.3143181,30.7621579 C63.3674956,30.1957704 63.5270257,29.5161156 63.7929132,28.723173 C64.0588007,27.9302305 64.4044493,27.0563886 64.8298693,26.101621 C65.2552893,25.1468535 65.6895657,24.2244648 66.1327116,23.3344272 C66.5758574,22.4443897 66.9746827,21.6352768 67.3291994,20.9070642 C67.6837161,20.1788517 67.9495996,19.6205638 68.1268579,19.2321838 C68.3750196,18.6496137 68.3927452,18.0427791 68.1800351,17.4116615 C67.9673251,16.780544 67.6305394,16.3274408 67.1696677,16.0523383 C66.708796,15.7772357 66.1858917,15.793418 65.6009392,16.1008855 C65.0159867,16.408353 64.4576313,17.2255571 63.9258563,18.5525221 C63.854953,18.6819821 63.730874,18.9813539 63.5536156,19.4506464 C63.3763573,19.919939 63.1636505,20.5025003 62.9154888,21.1983478 C62.6673271,21.8941953 62.4103064,22.6709437 62.1444189,23.5286163 C61.8785314,24.3862888 61.6392362,25.2682219 61.4265262,26.1744419 C61.1429129,26.9512019 60.8149899,27.7117681 60.4427473,28.4561631 C60.0705048,29.2005581 59.653954,29.8640307 59.1930823,30.4466008 C58.7322106,31.0291708 58.2093064,31.4903651 57.6243538,31.8301977 C57.0394013,32.1700302 56.3924181,32.3237616 55.6833847,32.2913966 C54.584383,32.2266666 53.7601441,31.8706569 53.2106433,31.2233569 C52.6611424,30.5760569 52.3420822,29.7831262 52.253453,28.8445412 C52.1648239,27.9059561 52.2977656,26.894565 52.6522823,25.8103375 C53.006799,24.7261099 53.5562916,23.7147188 54.3007766,22.7761337 C55.0452616,21.8375487 55.9581284,21.0608003 57.0394043,20.4458653 C58.1206801,19.8309302 59.3526071,19.5234673 60.7352221,19.5234673 C61.6215138,19.5234673 62.2950854,19.3050068 62.7559571,18.8680793 C63.2168288,18.4311518 63.4649867,17.9456841 63.5004384,17.4116615 C63.5358901,16.877639 63.3409088,16.3921713 62.9154888,15.9552437 C62.4900688,15.5183162 61.8342228,15.2836735 60.9479311,15.2513085 C58.9626377,15.1865785 57.2166692,15.5911349 55.7099734,16.46499 C54.2032775,17.338845 52.9713505,18.4473297 52.0141555,19.7904773 C51.0569604,21.1336248 50.3833889,22.6143014 49.9934205,24.2325515 C49.823735,24.9366946 49.7161379,25.620918 49.670629,26.2852255 C49.4527268,26.6946013 49.2235351,27.1026893 48.983053,27.5094915 C48.3803747,28.5289891 47.7599798,29.4190133 47.1218498,30.1795908 C46.4837198,30.9401684 45.8544621,31.5227297 45.2340579,31.9272922 C44.6136537,32.3318547 44.0730239,32.4046749 43.6121522,32.1457548 C43.2930872,31.9839298 43.2310477,31.6279202 43.4260319,31.0777151 C43.6210161,30.5275101 44.0198413,29.6860327 44.6225197,28.5532576 C45.4733597,26.9673726 45.7215177,25.5918806 45.367001,24.4267406 C46.005131,23.8765355 46.581212,23.277792 47.0952612,22.6304919 C47.6093103,21.9831919 48.0258612,21.3197193 48.3449262,20.6400543 C48.7348946,19.7014693 48.9121502,18.8276273 48.8766986,18.0185023 C48.8412469,17.2093772 48.6196773,16.5297224 48.2119831,15.9795174 C47.8042889,15.4293123 47.228208,15.0571204 46.483723,14.8629304 C45.7392379,14.6687404 44.8795479,14.7415606 43.904627,15.0813931 C42.9297062,15.4212256 41.8484465,16.0604248 40.6608156,16.9990098 C39.4731848,17.9375949 38.2412578,19.26454 36.9649978,20.9798851 C37.7094828,19.394 38.4716822,17.7919565 39.2516189,16.1737064 C40.0315556,14.5554563 40.7494411,13.0585975 41.4052969,11.6830849 C42.0611528,10.3075723 42.628371,9.11008522 43.1069685,8.09058767 C43.585566,7.07109012 43.913489,6.3671619 44.0907473,5.97878188 C44.338909,5.42857685 44.3566346,4.78937766 44.1439246,4.06116512 C43.9312146,3.33295258 43.5767032,2.77466468 43.0803799,2.38628466 C42.5840565,1.99790464 42.0079756,1.91699335 41.3521197,2.14354836 C40.6962638,2.37010337 40.0670062,3.14685176 39.4643278,4.47381683 C39.2516178,4.95929185 38.8705181,5.93022734 38.3210173,7.38665241 C37.7715164,8.84307748 37.1422587,10.5341234 36.4332254,12.459841 C35.724192,14.3855586 34.9708554,16.416432 34.1731929,18.5525221 C33.3755303,20.6886122 32.6399193,22.6709389 31.9663376,24.4995614 C31.2927559,26.328184 30.7166749,27.8897719 30.2380774,29.184372 C29.7594799,30.4789721 29.4847336,31.2233559 29.4138303,31.417546 C29.1302169,32.194306 29.0238635,32.7930495 29.0947669,33.2137946 C29.1656702,33.6345396 29.3252003,33.8691823 29.573362,33.9177298 C29.8215237,33.9662773 30.1317211,33.8287281 30.5039636,33.5050781 C30.8762061,33.1814281 31.2573058,32.6635958 31.6472742,31.9515658 C31.8954358,31.5308208 32.1435938,31.0777176 32.3917555,30.5922425 C32.6399171,30.1067675 32.8880751,29.637482 33.1362368,29.184372 C33.3843984,28.731262 33.6148308,28.3105233 33.8275408,27.9221433 C34.0402508,27.5337632 34.2175065,27.2101181 34.3593132,26.9511981 C34.4656682,27.3719431 34.7404145,27.7117705 35.1835604,27.9706905 C35.6267062,28.2296105 36.2027872,28.3590686 36.9118205,28.3590686 C37.6563055,28.3590686 38.5425839,28.1891549 39.5706823,27.8493224 C40.5987807,27.5094898 41.6445892,27.015931 42.7081392,26.3686309 C42.6372359,26.692281 42.548608,27.0321084 42.442253,27.3881234 C42.335898,27.7441384 42.1586424,28.1325126 41.9104807,28.5532576 C41.6977707,29.1034627 41.5116522,29.6455683 41.3521197,30.1795908 C41.1925872,30.7136134 41.1128221,31.2152634 41.1128221,31.6845559 C41.1128221,32.1538484 41.2280383,32.566496 41.4584742,32.922511 C41.68891,33.278526 42.0700097,33.5536244 42.6017847,33.7478144 C43.6298831,34.1361944 44.6225149,34.0310098 45.5797099,33.4322572 C46.536905,32.8335047 47.4231834,32.0243918 48.2385717,31.0048942 C48.8038415,30.2981254 49.3265109,29.552478 49.8065873,28.7679412 Z M17.5021295,10.0082044 C17.8211945,9.00488938 18.211157,8.31714341 18.6720286,7.94494589 C19.1329003,7.57274838 19.5849023,7.41901692 20.0280482,7.48374693 C20.471194,7.54847693 20.9054704,7.77502854 21.3308904,8.16340856 C21.7563104,8.55178858 22.1108218,8.99680068 22.3944351,9.4984582 C22.6780485,10.0001157 22.864167,10.5098569 22.9527961,11.0276969 C23.0414253,11.5455369 22.9971114,11.9500934 22.819853,12.2413784 C22.5362397,12.7268534 22.2969445,13.2204123 22.1019604,13.7220698 C21.9069762,14.2237273 21.8094856,14.6930128 21.8094856,15.1299403 C21.8094856,15.5668678 21.9424273,15.9390598 22.2083148,16.2465273 C22.4742023,16.5539948 22.9084787,16.7400908 23.5111571,16.8048208 C24.5747071,16.9342808 25.523025,16.756276 26.3561392,16.2708009 C27.1892534,15.7853259 27.8894133,15.1218533 28.45664,14.2803633 C29.0238667,13.4388732 29.4492803,12.4922111 29.7328937,11.4403486 C30.016507,10.388486 30.140586,9.35282152 30.1051343,8.33332397 C30.0696827,7.31382642 29.8481131,6.38334658 29.4404189,5.54185654 C29.0327247,4.7003665 28.4211926,4.05307618 27.6058043,3.59996615 C26.6486092,3.08212613 25.5230357,2.86366564 24.2290498,2.94457815 C22.9350639,3.02549065 21.6410974,3.32486243 20.3471116,3.84270245 C19.0531257,4.36054248 17.8123359,5.05637957 16.6247051,5.93023462 C15.4370742,6.80408966 14.4444424,7.76693402 13.6467799,8.81879657 C12.8491173,9.87065912 12.3262131,10.9791438 12.0780514,12.1442839 C11.8298897,13.3094239 11.9982826,14.442182 12.5832351,15.542592 C13.1681877,16.6430021 14.2405845,17.6624843 15.8004579,18.6010694 C17.3603313,19.5396544 19.5405762,20.3325851 22.3412579,20.9798851 C24.0074863,21.3682651 25.3369039,22.0236466 26.3295506,22.9460491 C27.3221973,23.8684517 27.9780433,24.9202985 28.2971083,26.101621 C28.6161733,27.2829436 28.5807222,28.5208863 28.1907538,29.8154864 C27.8007855,31.1100864 27.0385861,32.3156647 25.9041327,33.4322572 C24.7696793,34.5488498 23.2541433,35.503603 21.3574791,36.2965456 C19.4608148,37.0894881 17.1653538,37.5668647 14.471027,37.7286897 C11.5639903,37.9228797 9.11786188,37.752966 7.13256848,37.2189435 C5.14727509,36.684921 3.59628789,35.9405371 2.47956035,34.9857695 C1.36283282,34.031002 0.627221745,32.9386996 0.272705068,31.7088295 C-0.08181161,30.4789594 -0.090674394,29.2733812 0.24611645,28.0920587 C0.582907294,26.9107361 1.22989053,25.8265248 2.18708556,24.8393923 C3.14428059,23.8522597 4.36734478,23.0997847 5.85631482,22.5819447 C7.34528487,22.0641047 9.07352775,21.8699176 11.0410953,21.9993776 C13.0086629,22.1288376 15.1445938,22.7275811 17.4489522,23.7956262 C18.4770506,24.2811012 18.9467781,24.8232069 18.858149,25.4219594 C18.7695198,26.0207119 18.432734,26.5789998 17.8477815,27.0968398 C17.262829,27.6146799 16.606983,28.0030541 15.8802238,28.2619741 C15.1534646,28.5208941 14.683737,28.5532586 14.471027,28.3590686 C13.088412,26.9673735 11.7501316,26.0126203 10.4561457,25.4947803 C9.16215984,24.9769402 8.00113514,24.7665709 6.97303677,24.8636659 C5.94493841,24.9607609 5.06752279,25.3086794 4.3407636,25.907432 C3.61400441,26.5061845 3.11768851,27.2020216 2.851801,27.9949641 C2.58591349,28.7879067 2.57705071,29.6374752 2.82521238,30.5436953 C3.07337406,31.4499153 3.64945502,32.2671194 4.55347255,32.9953319 C5.45749008,33.7235444 6.72486819,34.3061057 8.35564491,34.7430332 C9.98642162,35.1799608 12.0603131,35.3336922 14.5773815,35.2042322 C16.3499649,35.1071372 17.9186776,34.783492 19.2835669,34.233287 C20.6484561,33.683082 21.7740296,33.0115183 22.6603213,32.2185757 C23.546613,31.4256332 24.1847335,30.5679735 24.5747018,29.645571 C24.9646702,28.7231684 25.0798864,27.8331442 24.9203538,26.9754717 C24.7608213,26.1177991 24.3176821,25.3491419 23.590923,24.6694769 C22.8641638,23.9898118 21.827218,23.5043441 20.4800547,23.2130591 C17.2185012,22.533394 14.6394311,21.6110053 12.7427669,20.4458653 C10.8461026,19.2807252 9.49895946,17.9942357 8.70129694,16.5863581 C7.90363441,15.1784805 7.59343697,13.7058951 7.77069531,12.1685575 C7.94795365,10.6312199 8.48858347,9.15863443 9.392601,7.75075686 C10.2966185,6.34287929 11.4930944,5.05638977 12.9820644,3.89124971 C14.4710345,2.72610965 16.1372379,1.80372094 17.9807246,1.12405591 C19.8242113,0.444390875 21.765161,0.0721989397 23.8036319,0.00746893646 C25.8421028,-0.0572610668 27.8539548,0.298748611 29.8392482,1.07550865 C31.2927665,1.72280868 32.3740262,2.63710626 33.0830595,3.81842882 C33.7920929,4.99975138 34.1731926,6.27814977 34.2263701,7.65366234 C34.2795476,9.02917491 34.0402524,10.4208491 33.5084774,11.8287267 C32.9767024,13.2366042 32.2056402,14.474547 31.1952677,15.542592 C30.1848951,16.6106371 28.9352426,17.4359323 27.4462725,18.0185023 C25.9573025,18.6010723 24.3088247,18.7628949 22.5007896,18.5039749 C21.4726913,18.3745149 20.5686873,18.067052 19.7887506,17.5815769 C19.0088139,17.0961019 18.388419,16.473085 17.9275473,15.7125074 C17.4666757,14.9519299 17.1830666,14.0861791 17.0767116,13.1152291 C16.9703566,12.144279 17.1121611,11.1086145 17.5021295,10.0082044 Z M36.805466,27.0482926 C39.1807278,26.8541026 41.0064613,26.0935364 42.2827213,24.7665714 C41.892753,24.4429214 41.2900837,24.3134633 40.4746953,24.3781933 C39.659307,24.4429233 38.5957729,24.7503862 37.2840612,25.3005912 C36.4686728,25.6566062 36.007808,26.0368893 35.901453,26.4414518 C35.795098,26.8460144 36.0964327,27.0482926 36.805466,27.0482926 L36.805466,27.0482926 Z M38.4539604,23.1159645 C39.5884137,22.7275845 40.5721827,22.5010329 41.4052969,22.4363029 C42.2384111,22.3715729 42.9562966,22.4363019 43.558975,22.6304919 C43.7362333,22.1450169 43.8425867,21.6433669 43.8780384,21.1255269 C43.9134901,20.3811319 43.75396,19.8147528 43.3994433,19.4263728 C43.0449266,19.0379928 42.5308851,18.9328081 41.8573034,19.1108156 C41.1837218,19.2888231 40.3594828,19.7742909 39.384562,20.5672334 C38.4096411,21.360176 37.3372443,22.5819364 36.1673392,24.2325515 C36.7700176,23.8441715 37.532217,23.4719796 38.4539604,23.1159645 L38.4539604,23.1159645 Z M89.7168156,20.9798851 C88.9723306,20.2354901 88.1303661,19.8632981 87.1908969,19.8632981 C86.2514277,19.8632981 85.3562866,20.1141231 84.5054465,20.6157807 C83.6546065,21.1174382 82.9101326,21.8294576 82.2720026,22.7518601 C81.6338726,23.6742626 81.2261845,24.6694715 81.0489262,25.7375166 C81.4388946,26.7408316 82.1479173,27.452851 83.1760156,27.873596 C84.204114,28.294341 85.2321969,28.3428878 86.2602953,28.0192378 C87.2883937,27.6955878 88.1658093,26.9673861 88.8925685,25.8346111 C89.6193277,24.701836 89.894074,23.0836102 89.7168156,20.9798851 L89.7168156,20.9798851 Z" id="Skate"></path>
                    <path d="M83.3503706,42.7522857 C83.2030956,42.9991808 83.0413411,43.2378105 82.8651032,43.4681807 C82.670119,43.7230551 82.466275,43.9334244 82.2535649,44.0992951 C82.0408549,44.2651657 81.8370109,44.3238264 81.6420267,44.2752789 C81.4647684,44.2348226 81.3340423,44.1498658 81.2498446,44.0204058 C81.1656469,43.8909458 81.1169016,43.7331687 81.1036072,43.54707 C81.0950521,43.4273134 81.09659,43.3000192 81.1082209,43.1651856 C81.0345654,43.2704904 80.9576931,43.3735114 80.877604,43.4742491 C80.6781883,43.7250778 80.4699129,43.9314016 80.2527715,44.0932266 C80.03563,44.2550517 79.8251389,44.3116896 79.6212918,44.2631421 C79.4617593,44.2226858 79.3465431,44.1357062 79.2756397,44.0022005 C79.2047364,43.8686949 79.1604225,43.7048495 79.1426967,43.5106595 C78.9831641,43.7453058 78.7926143,43.9374701 78.5710414,44.0871582 C78.3494684,44.2368464 78.0924477,44.3035982 77.7999715,44.2874157 C77.3834144,44.2631419 77.057707,44.1296383 76.8228397,43.8869008 C76.5879724,43.6441633 76.4373051,43.3468143 76.3708332,42.9948449 C76.3667284,42.9731095 76.3629361,42.9512739 76.3594565,42.929338 C76.2326018,43.1373448 76.0945888,43.3351632 75.9454154,43.5227963 C75.7459997,43.7736251 75.5332929,43.9759033 75.3072885,44.1296371 C75.0812841,44.2833709 74.8486361,44.3238265 74.6093373,44.2510052 C74.3700385,44.178184 74.19943,44.0507487 74.0975064,43.8686956 C73.9955829,43.6866424 73.9490532,43.4600908 73.9579162,43.1890339 C73.9667791,42.917977 74.0310343,42.6105141 74.1506836,42.266636 C74.270333,41.9227579 74.4320788,41.5525887 74.6359259,41.1561174 C74.7511438,40.9376537 74.7799479,40.80415 74.7223389,40.7556025 C74.66473,40.707055 74.5583766,40.7414423 74.4032755,40.8587655 C74.2481745,40.9760886 74.0598403,41.1682529 73.8382674,41.4352642 C73.6166945,41.7022754 73.3995563,42.0421029 73.1868462,42.4547566 C73.0539025,42.7136766 72.9364706,42.9665244 72.8345471,43.2133076 C72.7326235,43.4600907 72.6484271,43.6846195 72.5819552,43.8869008 C72.5154833,44.0891821 72.4645223,44.2590958 72.4290706,44.396647 C72.393619,44.5341983 72.3758934,44.6232007 72.3758934,44.6636569 C72.1188688,44.5422882 71.934966,44.404739 71.8241796,44.2510052 C71.7133931,44.0972715 71.6712949,43.8990388 71.6978836,43.6563013 C71.7244724,43.4135638 71.8131002,43.1121692 71.9637698,42.7521086 C72.1144394,42.392048 72.3315776,41.9409675 72.615191,41.3988537 C72.7569976,41.1075687 72.8168214,40.8870855 72.7946641,40.7373973 C72.7725068,40.5877092 72.6772319,40.5533219 72.5088365,40.6342344 C72.3404411,40.7151469 72.1033616,40.9396757 71.797591,41.3078276 C71.4918203,41.6759795 71.1350933,42.2322446 70.7273991,42.9766397 C70.6210441,43.1870122 70.5302006,43.365017 70.4548658,43.5106595 C70.379531,43.656302 70.32857,43.7533956 70.3019812,43.8019431 C70.2044891,43.9799506 70.1092142,44.1094087 70.0161536,44.1903212 C69.9230929,44.2712337 69.8455436,44.305621 69.7835032,44.2934841 C69.7214627,44.2813472 69.6815802,44.2226865 69.6638544,44.1175003 C69.6461285,44.012314 69.6727169,43.8626281 69.7436202,43.6684381 C69.7524831,43.6198906 69.7990128,43.4803186 69.8832105,43.249718 C69.9674082,43.0191174 70.0715459,42.7298595 70.1956267,42.3819357 C70.3197076,42.034012 70.4615121,41.643615 70.6210446,41.2107331 C70.7805771,40.7778512 70.9401072,40.342953 71.0996397,39.9060255 C71.2237206,39.5742842 71.3566623,39.3841427 71.498469,39.3355952 C71.6402757,39.2870477 71.7643547,39.3133439 71.8707097,39.4144845 C71.9770647,39.5156251 72.054614,39.6572199 72.1033601,39.839273 C72.1521061,40.0213262 72.145459,40.1770804 72.0834186,40.3065404 C71.9416119,40.5735517 71.8131016,40.8324678 71.6978836,41.0832965 C72.1498924,40.4683615 72.5487177,40.0557139 72.8943715,39.8453414 C73.2400252,39.6349689 73.5125558,39.5641715 73.7119715,39.6329472 C73.9113871,39.7017228 74.028819,39.8756821 74.0642706,40.1548302 C74.0997223,40.4339783 74.02882,40.7556007 73.8515617,41.119707 C74.3390221,40.440042 74.7666515,39.9768248 75.1344625,39.7300417 C75.5022736,39.4832585 75.783667,39.3962789 75.9786511,39.4691002 C76.1736353,39.5419214 76.2644788,39.7441996 76.2511845,40.0759409 C76.2378901,40.4076822 76.0938698,40.8122386 75.8191194,41.2896224 C75.6861757,41.5323599 75.537724,41.791276 75.3737601,42.0663786 C75.2097961,42.3414811 75.0679916,42.6044428 74.9483422,42.8552715 C74.8286928,43.1061003 74.7444964,43.3205152 74.6957503,43.4985227 C74.6470043,43.6765302 74.6669455,43.789806 74.7555747,43.8383535 C74.8707926,43.9030835 74.999303,43.899038 75.1411097,43.8262167 C75.2829163,43.7533955 75.4291523,43.627983 75.5798219,43.4499755 C75.7304914,43.2719679 75.8878059,43.0514847 76.0517698,42.788519 C76.1481863,42.6338862 76.245368,42.468763 76.3433161,42.2931477 C76.3570448,42.1522966 76.3817272,42.0079318 76.4173633,41.8600527 C76.5148554,41.4554902 76.6832483,41.085321 76.9225471,40.7495341 C77.1618458,40.4137472 77.4698276,40.1366261 77.8465015,39.9181623 C78.2231755,39.6996986 78.6596676,39.5985594 79.155991,39.6147419 C79.3775639,39.6228332 79.5415254,39.6814939 79.6478804,39.7907258 C79.7542354,39.8999576 79.8029807,40.0213246 79.7941178,40.1548302 C79.7852549,40.2883358 79.7232154,40.4097028 79.6079975,40.5189347 C79.4927795,40.6281665 79.3243867,40.6827817 79.1028137,40.6827817 C78.75716,40.6827817 78.4491782,40.7596474 78.1788593,40.9133811 C77.9085403,41.0671149 77.6803236,41.261302 77.4942023,41.4959483 C77.3080811,41.7305945 77.1707079,41.9834423 77.0820788,42.2544992 C76.9934496,42.5255561 76.9602142,42.7784039 76.9823715,43.0130501 C77.0045287,43.2476964 77.0842938,43.445929 77.221669,43.6077541 C77.3590442,43.7695791 77.565104,43.8585815 77.8398544,43.874764 C78.0171127,43.8828552 78.1788585,43.8444224 78.3250967,43.7594642 C78.4713348,43.6745061 78.6020608,43.5592075 78.7172788,43.413565 C78.8324967,43.2679225 78.9366344,43.1020544 79.029695,42.9159556 C79.1227557,42.7298568 79.2047364,42.5397153 79.2756397,42.3455253 C79.3288172,42.1189703 79.388641,41.898487 79.4551129,41.6840689 C79.5215848,41.4696508 79.58584,41.2754637 79.6478804,41.1015018 C79.7099208,40.9275399 79.7630975,40.7818996 79.8074121,40.6645764 C79.8517267,40.5472533 79.8827464,40.4724104 79.9004723,40.4400454 C80.033416,40.1083041 80.1730049,39.9040031 80.319243,39.8271362 C80.4654811,39.7502693 80.5962072,39.7462238 80.7114251,39.8149994 C80.826643,39.883775 80.9108395,39.9970508 80.964017,40.1548302 C81.0171945,40.3126096 81.0127631,40.4643183 80.9507227,40.6099608 C80.9064081,40.7070558 80.8399372,40.8466277 80.751308,41.0286809 C80.6626789,41.210734 80.5629725,41.4130122 80.4521861,41.6355216 C80.3413996,41.858031 80.2328305,42.0886282 80.1264755,42.3273201 C80.0201205,42.566012 79.9337084,42.7844724 79.8672365,42.9827081 C79.8007646,43.1809437 79.7608821,43.3508574 79.7475877,43.4924543 C79.7342933,43.6340512 79.7675288,43.7169853 79.847295,43.741259 C79.9713759,43.7817153 80.1021019,43.7533963 80.2394771,43.6563013 C80.3768524,43.5592063 80.5142255,43.4216571 80.6516007,43.2436496 C80.7889759,43.0656421 80.9219177,42.8613411 81.05043,42.6307404 C81.1354798,42.4781283 81.2195583,42.3264035 81.3026667,42.1755643 C81.359921,41.966003 81.4242947,41.759694 81.4957893,41.5566323 C81.5755556,41.3300773 81.6508893,41.1237535 81.7217926,40.9376548 C81.7483813,40.8729248 81.7904796,40.7616717 81.8480885,40.6038924 C81.9056975,40.446113 81.9743841,40.2620398 82.0541503,40.0516673 C82.1339166,39.8412948 82.2225444,39.6106976 82.3200365,39.3598688 C82.4175286,39.1090401 82.5150192,38.8541695 82.6125113,38.5952495 L81.655321,38.5952495 C81.5046515,38.5952495 81.4226707,38.5547938 81.4093763,38.4738813 C81.396082,38.3929688 81.4226703,38.3019436 81.4891422,38.200803 C81.5556141,38.0996624 81.6531047,38.0066144 81.781617,37.9216563 C81.9101293,37.8366981 82.0408553,37.7901741 82.1737991,37.7820829 L82.9315747,37.7820829 C83.0379297,37.5231629 83.1332046,37.2905429 83.2174023,37.084216 C83.3016001,36.8778891 83.3658552,36.730226 83.4101698,36.6412223 C83.5608394,36.3013898 83.7203695,36.1092255 83.8887649,36.0647236 C84.0571604,36.0202217 84.2078277,36.0505634 84.3407715,36.1557497 C84.4737152,36.2609359 84.5712058,36.4106218 84.6332462,36.6048118 C84.6952867,36.7990019 84.6952867,36.96487 84.6332462,37.1024213 C84.5977946,37.1671513 84.5534807,37.2581765 84.5003032,37.3754996 C84.4471257,37.4928227 84.3850862,37.6283491 84.3141828,37.7820829 L86.6805698,37.7820829 C86.8401023,37.7820829 86.9420243,37.8245613 86.9863389,37.9095194 C87.0306535,37.9944776 87.0240064,38.0875256 86.9663975,38.1886662 C86.9087885,38.2898068 86.8068665,38.3828548 86.6606284,38.4678129 C86.5143902,38.5527711 86.3349189,38.5952495 86.1222088,38.5952495 L83.9286479,38.5952495 C83.81343,38.837987 83.6959981,39.0807209 83.5763487,39.3234584 C83.4566993,39.5661959 83.3481302,39.7927475 83.2506381,40.00312 C83.153146,40.2134925 83.0667339,40.3975657 82.9913991,40.5553451 C82.9160643,40.7131245 82.8651033,40.8243775 82.8385145,40.8891075 C82.7764741,41.03475 82.6944934,41.2107321 82.5925698,41.417059 C82.4906463,41.6233858 82.3887243,41.835778 82.2868007,42.0542417 C82.1848772,42.2727055 82.0873865,42.4931888 81.9943259,42.7156982 C81.9012653,42.9382075 81.8259316,43.138463 81.7683227,43.3164705 C81.7107137,43.494478 81.6752626,43.6421411 81.6619682,43.7594642 C81.6486738,43.8767874 81.6774779,43.9435392 81.7483812,43.9597217 C81.8635991,43.9920867 81.9943252,43.9475855 82.1405633,43.8262167 C82.2868014,43.704848 82.4374688,43.5410026 82.5925698,43.3346757 C82.7476709,43.1283488 82.8983382,42.8997744 83.0445763,42.6489457 C83.1485167,42.4706664 83.2468593,42.2985202 83.3396056,42.1325046 C83.3548216,41.9801293 83.3827744,41.8245826 83.4234641,41.6658637 C83.5209562,41.2855749 83.682702,40.9396791 83.9087064,40.628166 C84.1347108,40.3166528 84.4183199,40.0658278 84.7595422,39.8756835 C85.1007645,39.6855391 85.4929427,39.5985594 85.9360885,39.6147419 C86.1842502,39.6309244 86.3925256,39.6875623 86.560921,39.7846574 C86.7293165,39.8817524 86.8600425,40.0071649 86.9531032,40.1608986 C87.0461638,40.3146324 87.1059876,40.4885916 87.1325763,40.6827817 C87.1591651,40.8769717 87.1591651,41.0792499 87.1325763,41.2896224 C87.0882617,41.6294549 86.9752612,41.9531001 86.7935715,42.2605676 C86.6118817,42.5680351 86.3880964,42.8168373 86.1222088,43.0069817 C85.8563213,43.1971261 85.552771,43.300288 85.2115487,43.3164705 C84.8703264,43.332653 84.5180307,43.2153316 84.1546511,42.9645029 C84.1989657,43.1748754 84.2787308,43.3609713 84.3939487,43.5227963 C84.5091666,43.6846214 84.6731281,43.7938516 84.8858381,43.8504903 C85.116274,43.9071291 85.3688633,43.9010608 85.6436137,43.8322851 C85.9183642,43.7635095 86.1886791,43.6441653 86.4545666,43.4742491 C86.7204541,43.3043328 86.9663963,43.0919407 87.1924007,42.8370663 C87.4184051,42.5821919 87.6023079,42.2888885 87.7441145,41.9571472 C87.806155,41.819596 87.88592,41.7629581 87.9834121,41.7872318 C88.0809042,41.8115056 88.1074925,41.8924169 88.063178,42.0299681 C87.9390971,42.3698006 87.7596257,42.691423 87.5247584,42.9948449 C87.2898911,43.2982668 87.0173605,43.5571829 86.7071584,43.7716011 C86.3969563,43.9860192 86.0601706,44.1377279 85.696791,44.2267316 C85.3334114,44.3157354 84.9611744,44.3116898 84.580069,44.2145948 C84.2078265,44.125591 83.9220017,43.9455634 83.7225861,43.6745065 C83.5232047,43.4034962 83.3991341,43.0960923 83.3503706,42.7522857 Z M86.3482121,41.0468861 C86.1620908,40.8607873 85.9515997,40.7677394 85.7167324,40.7677394 C85.4818651,40.7677394 85.2580798,40.8304456 85.0453698,40.95586 C84.8326598,41.0812744 84.6465414,41.2592792 84.4870088,41.4898798 C84.3274763,41.7204805 84.2255543,41.9692827 84.1812397,42.236294 C84.2787318,42.4871227 84.4559875,42.6651276 84.7130121,42.7703138 C84.9700367,42.8755001 85.2270574,42.8876368 85.484082,42.8067243 C85.7411066,42.7258118 85.9604605,42.5437614 86.1421503,42.2605676 C86.3238401,41.9773738 86.3925267,41.5728174 86.3482121,41.0468861 L86.3482121,41.0468861 Z" id="mate"></path>
                </g>
                <g id="Page-1" transform="translate(18.000000, 45.000000)">
                    <path d="M63.0090773,29.4451945 C63.0090773,27.8998228 61.7563014,26.6470768 60.2109597,26.6470768 C58.665588,26.6470768 57.412812,27.8998228 57.412812,29.4451945 L57.412812,48.0914523 C57.412812,48.7724636 57.6611925,49.4301657 58.1114253,49.9411645 L69.3681161,62.7187464 L73.567185,59.0192921 L63.0090773,47.0347915 L63.0090773,29.4451945 L63.0090773,29.4451945 Z" id="Fill-1" fill="#F9AA38"></path>
                    <polygon id="Fill-3" fill="#E2B171" points="16.2070889 70.5195605 14.9645557 70.2411725 13.1963054 76.4724315 20.8258723 78.0267244 20.574368 71.6524265"></polygon>
                    <path d="M8.62558798,70.56802 L4.93277196,85.2478798 L4.66714994,86.3038498 C4.5659234,86.7061727 4.8446418,87.1010463 5.2566368,87.1497672 C5.63673191,87.1947635 6.01505482,87.2027534 6.38755044,87.1762003 C8.93242153,86.995194 11.2004365,85.2047459 11.8545642,82.6043655 L14.9645617,70.2411815 L10.8872951,69.2155194 C9.88929762,68.9644355 8.87667184,69.5699625 8.62558798,70.56802" id="Fill-5" fill="#E95D82"></path>
                    <path d="M4.93277196,85.2478708 L4.66714994,86.3038408 C4.5659234,86.7061637 4.8446418,87.1010373 5.2566368,87.1497582 C5.63673191,87.1947544 6.01505482,87.2027444 6.38755044,87.1761912 C8.93242153,86.995185 11.2004365,85.2047369 11.8545642,82.6043564 L11.9041262,82.4073101 L6.01971064,80.9269697 L4.93277196,85.2478708 Z" id="Fill-7" fill="#FFFFFF"></path>
                    <path d="M8.62558798,70.56802 L4.93277196,85.2478798 L4.66714994,86.3038498 C4.5659234,86.7061727 4.8446418,87.1010463 5.2566368,87.1497672 C5.4809572,87.1763204 5.70449662,87.1884556 5.92668436,87.1897171 L10.4619635,69.1608511 C9.61622628,69.1469136 8.84083705,69.7123404 8.62558798,70.56802" id="Fill-9" fill="#8B4A8F"></path>
                    <path d="M40.1776401,52.31842 C37.6841332,52.1982999 35.5653146,54.1222048 35.4452245,56.6156516 L34.4191119,69.5990208 C34.3757076,70.4982248 34.0932946,71.3540546 33.6255199,72.0900345 C32.7763584,73.4259845 31.1427965,74.0396215 29.6011194,73.6803424 L16.2634573,70.5723274 L14.4339304,77.3524025 L30.4893897,81.3539144 C34.2679329,82.2956215 38.2934148,80.9506904 40.6278728,77.8338443 C42.2945061,75.6086628 43.3104961,72.9010183 43.4486989,70.0342348 L44.4748716,57.0508656 C44.5950218,54.5574788 42.671207,52.4386003 40.1776401,52.31842" id="Fill-11" fill="#653168"></path>
                    <mask id="mask-2" fill="white">
                        <use xlink:href="#path-1"></use>
                    </mask>
                    <g id="Clip-14"></g>
                    <polygon id="Fill-13" fill="#F9AA38" mask="url(#mask-2)" points="36.5174869 115.768881 39.6266133 115.768881 39.6266133 109.945472 36.5174869 109.945472"></polygon>
                    <path d="M38.0720471,112.274977 C35.9454488,112.274977 34.2215339,113.998922 34.2215339,116.12549 C34.2215339,118.252028 35.9454488,119.975973 38.0720471,119.975973 C40.1986453,119.975973 41.9225602,118.252028 41.9225602,116.12549 C41.9225602,113.998922 40.1986453,112.274977 38.0720471,112.274977" id="Fill-15" fill="#FCC236" mask="url(#mask-2)"></path>
                    <path d="M38.0720471,114.618785 C37.2399469,114.618785 36.5653036,115.293339 36.5653036,116.125499 C36.5653036,116.957599 37.2399469,117.632182 38.0720471,117.632182 C38.9042073,117.632182 39.5787905,116.957599 39.5787905,116.125499 C39.5787905,115.293339 38.9042073,114.618785 38.0720471,114.618785" id="Fill-16" fill="#F9AA38" mask="url(#mask-2)"></path>
                    <polygon id="Fill-17" fill="#F9AA38" mask="url(#mask-2)" points="68.1578073 115.768881 71.2669337 115.768881 71.2669337 109.945472 68.1578073 109.945472"></polygon>
                    <path d="M69.7123795,112.274977 C67.5857512,112.274977 65.8618663,113.998922 65.8618663,116.12549 C65.8618663,118.252028 67.5857512,119.975973 69.7123795,119.975973 C71.8389777,119.975973 73.5628926,118.252028 73.5628926,116.12549 C73.5628926,113.998922 71.8389777,112.274977 69.7123795,112.274977" id="Fill-18" fill="#FCC236" mask="url(#mask-2)"></path>
                    <path d="M69.7123795,114.618785 C68.8802493,114.618785 68.205636,115.293339 68.205636,116.125499 C68.205636,116.957599 68.8802493,117.632182 69.7123795,117.632182 C70.5445397,117.632182 71.2190929,116.957599 71.2190929,116.125499 C71.2190929,115.293339 70.5445397,114.618785 69.7123795,114.618785" id="Fill-19" fill="#F9AA38" mask="url(#mask-2)"></path>
                    <polygon id="Fill-20" fill="#E2B171" mask="url(#mask-2)" points="45.9525026 101.369881 53.4628205 103.034622 55.4674363 97.6931655 48.1757917 95.6098213"></polygon>
                    <path d="M64.4683044,105.556391 C63.6718889,103.132602 61.3822768,101.369878 58.7008551,101.369878 L45.9524996,101.369878 L45.9524996,105.574234 C45.9524996,106.60332 46.7867625,107.437643 47.8159389,107.437643 L62.9531204,107.437643 L64.0419815,107.437643 C64.4568601,107.437643 64.7718338,107.071035 64.7186073,106.659611 C64.6694658,106.280056 64.5849101,105.911105 64.4683044,105.556391" id="Fill-21" fill="#E95D82" mask="url(#mask-2)"></path>
                    <path d="M64.4683044,105.556391 C63.6718889,103.132602 61.3822768,101.369878 58.7008551,101.369878 L58.4976511,101.369878 L58.4976511,107.437643 L62.9531204,107.437643 L64.0419815,107.437643 C64.4568601,107.437643 64.7718338,107.071035 64.7186073,106.659611 C64.6694658,106.280056 64.5849101,105.911105 64.4683044,105.556391" id="Fill-22" fill="#FFFFFF" mask="url(#mask-2)"></path>
                    <path d="M64.5938523,106.000004 L46.0033141,106.000004 C46.1961252,106.823634 46.9335469,107.437631 47.8159599,107.437631 L62.9531114,107.437631 L64.0419725,107.437631 C64.4568511,107.437631 64.7718548,107.071023 64.7185982,106.659598 C64.689612,106.435609 64.6468385,106.215854 64.5938523,106.000004" id="Fill-23" fill="#8B4A8F" mask="url(#mask-2)"></path>
                    <path d="M19.4581277,104.581406 L0.61494368,104.581406 C0.275369212,104.581406 1.50187735e-05,104.8567 1.50187735e-05,105.196334 C1.50187735e-05,105.535939 0.275369212,105.811263 0.61494368,105.811263 L19.4581277,105.811263 C19.7977021,105.811263 20.0730563,105.535939 20.0730563,105.196334 C20.0730563,104.8567 19.7977021,104.581406 19.4581277,104.581406" id="Fill-24" fill="#EC5A81" mask="url(#mask-2)"></path>
                    <path d="M19.4581277,108.380891 L4.38642804,108.380891 C4.04679349,108.380891 3.77149937,108.656215 3.77149937,108.99585 C3.77149937,109.335454 4.04679349,109.610748 4.38642804,109.610748 L19.4581277,109.610748 C19.7977021,109.610748 20.0730563,109.335454 20.0730563,108.99585 C20.0730563,108.656215 19.7977021,108.380891 19.4581277,108.380891" id="Fill-25" fill="#EC5A81" mask="url(#mask-2)"></path>
                    <path d="M19.4581277,112.180407 L7.96966708,112.180407 C7.63012265,112.180407 7.35476846,112.455701 7.35476846,112.795335 C7.35476846,113.13494 7.63012265,113.410234 7.96966708,113.410234 L19.4581277,113.410234 C19.7977021,113.410234 20.0730563,113.13494 20.0730563,112.795335 C20.0730563,112.455701 19.7977021,112.180407 19.4581277,112.180407" id="Fill-26" fill="#EC5A81" mask="url(#mask-2)"></path>
                    <path d="M80.7889021,103.836009 C80.7296981,103.867939 74.8036806,107.027408 69.3430048,107.027408 L38.4422688,107.027408 C32.981593,107.027408 27.0555454,103.867939 26.9984741,103.837271 C25.9011424,103.242828 24.5295079,103.650797 23.9348846,104.748039 C23.3403214,105.845671 23.7481111,107.217216 24.8456531,107.811629 C25.1273151,107.964249 31.8187795,111.547458 38.4422688,111.547458 L69.3430048,111.547458 C75.9664641,111.547458 82.6579584,107.964249 82.9396205,107.811629 C84.0362914,107.217636 84.4433602,105.847984 83.8505091,104.750772 C83.2577181,103.653561 81.8870748,103.24493 80.7889021,103.836009" id="Fill-27" fill="#FEFEF6" mask="url(#mask-2)"></path>
                    <path d="M69.2052616,61.5842703 C69.2313342,63.1210513 71.047975,63.5224731 71.047975,63.5224731 L73.0830788,61.1671389 L72.7166508,59.0311389 C72.7166508,59.0311389 69.179219,60.0474293 69.2052616,61.5842703" id="Fill-28" fill="#EFC88F" mask="url(#mask-2)"></path>
                    <path d="M74.6908085,63.6974568 L72.6670288,62.4470238 C72.3528661,62.2526208 71.9404506,62.3502128 71.7461977,62.6644956 C71.5519449,62.9788686 71.6492666,63.3911039 71.9636696,63.5853867 L73.9874493,64.8358798 C74.91603,65.409597 75.7215469,66.1341927 76.2556746,66.8761502 C76.3309186,66.9806809 76.4308235,67.0570964 76.5416921,67.1030538 C76.7487409,67.1889612 76.9942378,67.168836 77.189572,67.0282303 C77.4894668,66.8122904 77.5575319,66.3941677 77.341622,66.0942728 C76.6978573,65.200025 75.7813217,64.3712591 74.6908085,63.6974568" id="Fill-29" fill="#EFC88F" mask="url(#mask-2)"></path>
                    <path d="M80.6084996,61.7659915 C79.5051905,61.1463169 78.1493557,60.7269327 76.6875785,60.5531655 L73.9745872,60.2306223 C73.5532806,60.1802493 73.1710528,60.4815259 73.1208601,60.9029227 C73.0707875,61.3243194 73.3717337,61.7065171 73.7931605,61.7566198 L76.5061517,62.079163 C77.7509377,62.227188 78.9406048,62.5918438 79.855969,63.1059064 C79.9849802,63.178387 80.1260065,63.209626 80.2636986,63.2038288 C80.5210003,63.1929852 80.7668576,63.0531605 80.9021767,62.8121692 C81.1100065,62.4421967 80.9785021,61.9737612 80.6084996,61.7659915" id="Fill-30" fill="#EFC88F" mask="url(#mask-2)"></path>
                    <path d="M80.1071309,63.6398748 C79.0814688,62.8988185 77.7821647,62.3279249 76.3495539,61.9890113 L73.6909006,61.359995 C73.2780345,61.2620426 72.863997,61.5178723 72.7662248,61.9308285 C72.6685427,62.3438148 72.9241021,62.7577922 73.3370884,62.8554743 L75.9958018,63.4844906 C77.2156566,63.7731514 78.3561522,64.2706633 79.2071159,64.885562 C79.3270258,64.9721902 79.4636065,65.0192891 79.6010884,65.0291414 C79.8578793,65.0477046 80.1180946,64.936776 80.279967,64.7127259 C80.5284676,64.3687359 80.4510909,63.8884055 80.1071309,63.6398748" id="Fill-31" fill="#EFC88F" mask="url(#mask-2)"></path>
                    <path d="M75.3941707,62.9909016 L72.8270418,62.0558929 C72.4284436,61.9104811 71.9873722,62.1162083 71.8420806,62.5149567 C71.6968791,62.9137051 71.902366,63.3546263 72.3011144,63.4998578 L74.8682433,64.4348966 C76.0461357,64.8639229 77.1207589,65.491167 77.8941657,66.2011645 C78.003172,66.3011594 78.1332646,66.3638478 78.2686438,66.3897402 C78.5215299,66.4381607 78.7929191,66.3583209 78.9798428,66.1546964 C79.2668215,65.8420956 79.2460055,65.355998 78.9333747,65.0689892 C78.0011594,64.2132796 76.7773697,63.4946613 75.3941707,62.9909016" id="Fill-32" fill="#EFC88F" mask="url(#mask-2)"></path>
                    <path d="M73.9745722,60.2306133 C73.5532956,60.1802703 73.1709777,60.4815469 73.1208451,60.9028536 C73.0998488,61.0796846 73.1433432,61.2477447 73.22877,61.3891314 C72.9879289,61.4661477 72.7894708,61.6589887 72.7192731,61.9214268 C72.6925697,62.0212416 72.6894758,62.1211164 72.7024521,62.2172666 C72.7150678,62.2024881 72.7294558,62.1900225 72.7411404,62.1740726 C73.386377,61.2885657 75.0790528,60.609597 76.6977462,60.5545682 C76.6943519,60.5541477 76.6910478,60.553577 76.6875635,60.5531564 L73.9745722,60.2306133 Z" id="Fill-33" fill="#E2B171" mask="url(#mask-2)"></path>
                    <path d="M77.0727529,58.4698994 C77.0508556,58.4618493 77.0283875,58.4547304 77.0054388,58.4485727 C74.754395,57.8460796 72.4328831,59.1873462 71.8303599,61.43839 C71.7206328,61.8483424 71.9636666,62.2701597 72.3739194,62.3793161 C72.7839319,62.4890733 73.2051184,62.2457091 73.3148756,61.8357567 C73.6983049,60.403236 75.1756416,59.5497191 76.6081622,59.9330884 C77.0181146,60.0427855 77.4393612,59.7994513 77.5490283,59.3894989 C77.6526278,59.0025252 77.441584,58.6054889 77.0727529,58.4698994" id="Fill-34" fill="#EFC88F" mask="url(#mask-2)"></path>
                    <path d="M72.5916436,60.0009041 C72.1832531,60.1965687 71.3804996,62.5521131 71.3804996,62.5521131 L74.0258163,63.5244886 C74.0258163,63.5244886 73.6774408,59.4806238 72.5916436,60.0009041" id="Fill-35" fill="#EFC88F" mask="url(#mask-2)"></path>
                    <path d="M72.2593532,60.9374929 C71.8509627,61.1331875 71.047969,63.5224941 71.047969,63.5224941 L73.7859514,64.4716205 C73.7859514,64.4716205 73.3451805,60.4172726 72.2593532,60.9374929" id="Fill-36" fill="#EFC88F" mask="url(#mask-2)"></path>
                    <path d="M37.8244446,60.3853637 C37.8244446,65.1793262 41.7107625,69.0656441 46.5047249,69.0656441 L49.8372706,69.0656441 L49.8372706,57.3922723 L37.8244446,57.3922723 L37.8244446,60.3853637 Z" id="Fill-37" fill="#4F2650" mask="url(#mask-2)"></path>
                    <path d="M45.7382508,52.3914023 C44.0601432,50.5433722 41.2014999,50.4054999 39.3533797,52.0836976 C37.5051995,53.7618954 37.3674173,56.6205687 39.045615,58.4685687 L53.376769,74.2508966 C54.6971294,75.7050443 55.0667414,77.8179154 54.3185362,79.6338053 L46.2226663,100.55775 L54.5233922,100.590251 L62.6769642,83.0776701 C64.7485637,78.0499855 63.7250944,72.1998428 60.0693747,68.1737602 L45.7382508,52.3914023 Z" id="Fill-38" fill="#4F2650" mask="url(#mask-2)"></path>
                    <path d="M57.6707835,25.8127029 L45.4284706,24.3236516 C43.444791,24.1126078 44.1406108,26.4791459 43.4069437,27.2119419 C42.3035444,28.3140496 41.3710288,28.2416891 44.9891414,29.8285427 L34.3091114,57.4486678 L51.239174,57.4486678 L62.6766008,31.7902949 C63.6925307,27.4425402 62.0185382,26.8286328 57.6707835,25.8127029" id="Fill-39" fill="#FCC236" mask="url(#mask-2)"></path>
                    <path d="M46.5488831,24.8358548 C45.3002824,23.9247259 43.5498743,24.1991189 42.6393462,25.4477797 L33.5593562,38.4011114 C32.3875615,39.9521001 31.4629156,41.6668836 30.8110108,43.4978824 L25.7370984,58.2938673 L31.2973787,58.8163104 L36.0831409,45.3748686 C36.545629,44.0755945 37.2025202,42.8593141 38.0356416,41.7597597 C38.0459444,41.7463329 38.0561272,41.7326358 38.0661297,41.7187885 L47.1606879,28.7452716 C48.0713362,27.496761 47.7974839,25.7463529 46.5488831,24.8358548" id="Fill-40" fill="#FCC236" mask="url(#mask-2)"></path>
                    <path d="M28.4914783,58.551974 L25.7714583,58.2956936 C24.3058663,58.1576711 22.8921492,58.2819965 21.6830478,58.6553031 C21.2775109,58.7804696 21.0503369,59.2106373 21.1755334,59.6161141 C21.2699414,59.9220466 21.5379064,60.1264521 21.8378914,60.1547174 C21.9356636,60.1639389 22.0368,60.154417 22.1363745,60.1236586 C23.1395384,59.8138814 24.3793382,59.7081191 25.6273682,59.8257161 L28.3473582,60.0819665 C28.7698663,60.1217662 29.1446148,59.8115384 29.1844145,59.3890303 C29.2242443,58.9664921 28.9139865,58.5917737 28.4914783,58.551974" id="Fill-41" fill="#EFC88F" mask="url(#mask-2)"></path>
                    <path d="M25.9896931,59.2465171 C24.5202263,59.1587775 23.1115254,59.3314633 21.915971,59.7458914 C21.748001,59.8041041 21.6159559,59.9164145 21.5261437,60.0548275 C21.6210023,60.1095259 21.727185,60.1442793 21.8379034,60.1547324 C21.9356456,60.1639239 22.036812,60.154402 22.1363865,60.1236135 C23.1395504,59.8139564 24.3793202,59.7081041 25.6273502,59.8256711 L28.3473101,60.0819514 C28.7062588,60.1157136 29.0285317,59.8958688 29.1424641,59.5702318 C29.0241161,59.4780165 28.8779534,59.4190528 28.7169222,59.4094708 L25.9896931,59.2465171 Z" id="Fill-42" fill="#E2B171" mask="url(#mask-2)"></path>
                    <path d="M28.8056411,58.8339574 L26.0929502,59.1588135 C24.6313532,59.3338723 23.2759089,59.754428 22.1731104,60.3750038 C21.803228,60.5831339 21.6721742,61.0516295 21.8803044,61.4214819 C22.0372806,61.7005006 22.342432,61.8435995 22.641636,61.8077647 C22.7390778,61.7960801 22.8359189,61.7654718 22.9267524,61.7142879 C23.8416961,61.1994143 25.0310328,60.8337672 26.2756986,60.6846608 L28.9883895,60.3598348 C29.4097262,60.3093116 29.710432,59.9268736 29.6599089,59.5055369 C29.6094758,59.0841402 29.2269777,58.7834944 28.8056411,58.8339574" id="Fill-43" fill="#EFC88F" mask="url(#mask-2)"></path>
                    <path d="M26.5226403,60.291187 C25.0678618,60.5161982 23.7123274,60.7337602 22.6314563,61.3916726 C22.4795865,61.4841582 22.3742748,61.6218503 22.3157317,61.7761232 C22.419992,61.8094949 22.531191,61.8209992 22.641579,61.8077527 C22.7390809,61.7960981 22.8359219,61.7654598 22.9267554,61.7142758 C23.8416991,61.1994023 25.0310358,60.8337552 26.2757016,60.6846788 L27.0717267,61.6189967 C27.9356666,60.8817852 26.5226403,60.291187 26.5226403,60.291187" id="Fill-44" fill="#E2B171" mask="url(#mask-2)"></path>
                    <path d="M29.6539374,60.139975 L26.9526608,60.5492666 C25.4971615,60.7697722 24.1554743,61.2323805 23.0725907,61.8870488 C22.7094368,62.1065932 22.5929812,62.5789637 22.8125257,62.9421176 C22.9555344,63.1786633 23.2057472,63.3105582 23.463169,63.3130814 C23.6010713,63.314433 23.7409562,63.2787484 23.8675945,63.2021827 C24.7660776,62.6590438 25.9434593,62.2565106 27.1828686,62.0687159 L29.8841452,61.6594243 C30.3036796,61.5958348 30.5922804,61.2041151 30.5287209,60.7845807 C30.4651314,60.3650163 30.0734118,60.0761752 29.6539374,60.139975" id="Fill-45" fill="#EFC88F" mask="url(#mask-2)"></path>
                    <path d="M30.3811014,59.2371755 C29.9567309,59.2357637 29.6115695,59.5786723 29.6102478,60.0030728 C29.6054718,61.4859965 28.395229,62.6886398 26.9123054,62.6838939 C26.487965,62.6825422 26.1428035,63.0254809 26.1415119,63.4498513 C26.1402503,63.850372 26.4457021,64.1803945 26.8369412,64.2172205 C26.8601001,64.2194133 26.8837096,64.2205847 26.9074693,64.2206448 C29.2376921,64.228034 31.1395494,62.3382218 31.1469987,60.007999 C31.1483504,59.5836285 30.8056521,59.2378964 30.3811014,59.2371755" id="Fill-46" fill="#EFC88F" mask="url(#mask-2)"></path>
                    <path d="M30.7782038,61.5922483 C31.1230348,61.2987214 31.2974028,58.8162984 31.2974028,58.8162984 L28.4914753,58.551968 C28.4914753,58.551968 29.8613377,62.3726538 30.7782038,61.5922483" id="Fill-47" fill="#EFC88F" mask="url(#mask-2)"></path>
                    <path d="M57.2266753,10.4499064 L53.3885076,10.4499064 C52.0027855,10.4499064 50.8794413,11.5732806 50.8794413,12.9590028 L49.1885076,25.6534708 C49.1885076,27.039193 50.3118819,28.1625071 51.697604,28.1625071 L55.5357717,28.1625071 C56.9214338,28.1625071 58.0447479,27.039193 58.0447479,25.6534708 L59.7356516,12.9590028 C59.7356516,11.5732806 58.6123374,10.4499064 57.2266753,10.4499064" id="Fill-48" fill="#EFC88F" mask="url(#mask-2)"></path>
                    <path d="M57.8636816,0.000141176471 C52.6548706,0.000141176471 48.3930834,4.26189837 48.3930834,9.47070939 L48.3930834,14.4210773 C48.3930834,19.6298884 52.6548706,23.8916456 57.8636816,23.8916456 C63.0724626,23.8916456 67.3342498,19.6298884 67.3342498,14.4210773 L67.3342498,9.47070939 C67.3342498,4.26189837 63.0724626,0.000141176471 57.8636816,0.000141176471" id="Fill-49" fill="#EFC88F" mask="url(#mask-2)"></path>
                    <path d="M61.2561071,15.7815139 C58.0055339,13.9221297 53.8995514,13.2689632 53.8995514,15.8420696 L53.8995514,19.5332335 C53.8995514,23.7919569 57.3839069,27.2763424 61.6426003,27.2763424 C61.6819194,27.2763424 62.0557967,27.276012 62.582385,27.2754413 L62.582385,18.1058193 C62.582385,17.1510458 62.0848731,16.2556265 61.2561071,15.7815139" id="Fill-50" fill="#4F2650" mask="url(#mask-2)"></path>
                    <path d="M66.57199,18.208013 L62.582403,18.208013 L61.5227384,22.9589617 L62.582403,27.275237 L66.57199,27.275237 C69.0757997,27.275237 71.1056471,25.2454198 71.1056471,22.74161 C71.1056471,20.2377101 69.0757997,18.208013 66.57199,18.208013" id="Fill-51" fill="#4F2650" mask="url(#mask-2)"></path>
                    <path d="M66.3988325,10.5546864 L62.6489752,10.2264661 L62.5853857,18.3160581 L67.8459214,18.2524686 C67.8963244,18.2524686 67.9462168,18.250426 67.9955985,18.246431 C69.2034083,18.1483885 69.8692506,16.7809592 69.2793131,15.7225562 L66.3988325,10.5546864 Z" id="Fill-52" fill="#EFC88F" mask="url(#mask-2)"></path>
                    <path d="M65.6849422,8.16755144 L63.7717607,8.16755144 C63.4165066,8.16755144 63.1285066,8.45555144 63.1285066,8.81086558 C63.1285066,9.16614969 63.4165066,9.45414969 63.7717607,9.45414969 L65.6849422,9.45414969 C66.0402263,9.45414969 66.3281962,9.16614969 66.3281962,8.81086558 C66.3281962,8.45555144 66.0402263,8.16755144 65.6849422,8.16755144" id="Fill-53" fill="#4F2650" mask="url(#mask-2)"></path>
                    <path d="M53.8995484,9.53681302 L53.8995484,17.6436466 L58.1937462,17.6436466 L58.1937462,13.8310108 C58.1937462,11.4594263 56.2711029,9.53681302 53.8995484,9.53681302" id="Fill-54" fill="#4F2650" mask="url(#mask-2)"></path>
                    <path d="M60.4300446,20.6452355 L60.4300446,21.5467524 L64.8513011,21.5467524 C66.1703399,21.5467524 67.2396466,20.4775059 67.2396466,19.158407 L67.2396466,18.2568901 L62.81842,18.2568901 C61.4993812,18.2568901 60.4300446,19.3261967 60.4300446,20.6452355" id="Fill-55" fill="#653168" mask="url(#mask-2)"></path>
                    <path d="M67.0311469,11.7143429 L62.1686388,11.7143429 C61.7441782,11.7143429 62.4201131,12.058423 62.4201131,12.4827935 C62.4201131,12.9072541 61.7441782,13.2513342 62.1686388,13.2513342 L67.0311469,13.2513342 C67.4555775,13.2513342 67.7996275,12.9072541 67.7996275,12.4827935 C67.7996275,12.058423 67.4555775,11.7143429 67.0311469,11.7143429" id="Fill-56" fill="#EB5C81" mask="url(#mask-2)"></path>
                    <path d="M64.7283484,9.9628836 C63.3893947,9.9628836 62.303988,11.0482904 62.303988,12.387214 C62.303988,13.7261377 63.3893947,14.8115745 64.7283484,14.8115745 C66.0672721,14.8115745 67.1526788,13.7261377 67.1526788,12.387214 C67.1526788,11.0482904 66.0672721,9.9628836 64.7283484,9.9628836" id="Fill-57" fill="#EB5C81" mask="url(#mask-2)"></path>
                    <path d="M64.7283484,11.0568901 C63.9936601,11.0568901 63.3980155,11.6525347 63.3980155,12.387223 C63.3980155,13.1219114 63.9936601,13.7174959 64.7283484,13.7174959 C65.4630668,13.7174959 66.0586513,13.1219114 66.0586513,12.387223 C66.0586513,11.6525347 65.4630668,11.0568901 64.7283484,11.0568901" id="Fill-58" fill="#653168" mask="url(#mask-2)"></path>
                    <path d="M63.312006,11.7143429 L58.4494678,11.7143429 C58.0250373,11.7143429 57.6809872,12.058423 57.6809872,12.4827935 C57.6809872,12.9072541 58.0250373,13.2513342 58.4494678,13.2513342 L63.312006,13.2513342 C63.7364365,13.2513342 63.0605016,12.9072541 63.0605016,12.4827935 C63.0605016,12.058423 63.7364365,11.7143429 63.312006,11.7143429" id="Fill-59" fill="#EB5C81" mask="url(#mask-2)"></path>
                    <path d="M59.0115905,12.2686738 C57.71517,12.2686738 56.6641862,13.3196576 56.6641862,14.6161382 C56.6641862,15.9125887 57.71517,16.9635424 59.0115905,16.9635424 C60.3080411,16.9635424 61.3590548,15.9125887 61.3590548,14.6161382 C61.3590548,13.3196576 60.3080411,12.2686738 59.0115905,12.2686738" id="Fill-60" fill="#EFC88F" mask="url(#mask-2)"></path>
                    <path d="M59.0115905,13.42317 C58.3527169,13.42317 57.8186193,13.9572676 57.8186193,14.6161412 C57.8186193,15.2749247 58.3527169,15.8090523 59.0115905,15.8090523 C59.6704641,15.8090523 60.2045617,15.2749247 60.2045617,14.6161412 C60.2045617,13.9572676 59.6704641,13.42317 59.0115905,13.42317" id="Fill-61" fill="#E2B171" mask="url(#mask-2)"></path>
                </g>
            </g>
        </g>
    </g>
</svg>