<?xml version="1.0" encoding="UTF-8" standalone="no"?>
<svg width="19px" height="22px" viewBox="0 0 19 22" version="1.1" xmlns="http://www.w3.org/2000/svg" xmlns:xlink="http://www.w3.org/1999/xlink">
    <!-- Generator: Sketch 41.2 (35397) - http://www.bohemiancoding.com/sketch -->
    <title>notifications-bell-button</title>
    <desc>Created with Sketch.</desc>
    <defs>
        <polygon id="path-1" points="9.392625 22 0.0825 22 0.0825 0.055 18.70275 0.055 18.70275 22 9.392625 22"></polygon>
    </defs>
    <g id="Page-1" stroke="none" stroke-width="1" fill="none" fill-rule="evenodd">
        <g id="Discover" transform="translate(-190.000000, -531.000000)">
            <g id="notifications-bell-button" transform="translate(190.000000, 531.000000)">
                <mask id="mask-2" fill="white">
                    <use xlink:href="#path-1"></use>
                </mask>
                <g id="Clip-2"></g>
                <path d="M9.351375,22 C10.56,22 11.54725,21.011375 11.54725,19.79725 L7.148625,19.79725 C7.148625,21.011375 8.14275,22 9.351375,22 L9.351375,22 Z M16.5,15.398625 L16.5,9.351375 C16.5,5.94 14.19,3.19 11,2.42275 L11,1.648625 C11,0.768625 10.231375,0 9.351375,0 C8.47,0 7.70275,0.768625 7.70275,1.648625 L7.70275,2.42275 C4.511375,3.19 2.20275,5.94 2.20275,9.351375 L2.20275,15.398625 L0,17.601375 L0,18.70275 L18.70275,18.70275 L18.70275,17.601375 L16.5,15.398625 Z M14.29725,16.5 L4.398625,16.5 L4.398625,9.351375 C4.398625,6.601375 6.601375,4.398625 9.351375,4.398625 C12.101375,4.398625 14.29725,6.601375 14.29725,9.351375 L14.29725,16.5 Z" id="Fill-1" fill="#FFFFFF" mask="url(#mask-2)"></path>
            </g>
        </g>
    </g>
</svg>