<?xml version="1.0" encoding="UTF-8" standalone="no"?>
<svg width="20px" height="24px" viewBox="0 0 20 24" version="1.1" xmlns="http://www.w3.org/2000/svg" xmlns:xlink="http://www.w3.org/1999/xlink">
    <!-- Generator: Sketch 41.2 (35397) - http://www.bohemiancoding.com/sketch -->
    <title>black</title>
    <desc>Created with Sketch.</desc>
    <defs></defs>
    <g id="Page-1" stroke="none" stroke-width="1" fill="none" fill-rule="evenodd">
        <g id="Profile" transform="translate(-269.000000, -530.000000)" stroke="#FFFFFF" stroke-width="2">
            <g id="black" transform="translate(270.000000, 531.000000)">
                <path d="M8.79576554,9.76549069 C10.1202962,9.76549069 11.2508436,9.29663366 12.1875992,8.35930297 C13.1251216,7.42254733 13.5930202,6.292 13.5930202,4.96746931 C13.5930202,3.64351366 13.1251216,2.51296634 12.1875992,1.57544396 C11.2508436,0.63888 10.1202962,0.17002297 8.79576554,0.17002297 C7.47123485,0.17002297 6.34049584,0.63888 5.4037402,1.57544396 C4.4664095,2.51296634 3.99831921,3.64351366 3.99831921,4.96746931 C3.99831921,6.292 4.4664095,7.42254733 5.4037402,8.35930297 C6.34049584,9.29663366 7.47123485,9.76549069 8.79576554,9.76549069 L8.79576554,9.76549069 Z" id="Fill-1"></path>
                <path d="M17.5472523,16.5914851 C17.5181164,16.1707406 17.4596531,15.7170265 17.3720539,15.2295762 C17.2852214,14.7421259 17.1744285,14.2899453 17.041017,13.8736095 C16.9077972,13.4572737 16.7287651,13.0514804 16.5035374,12.656038 C16.2788848,12.2600206 16.0204958,11.9230416 15.7293291,11.6437592 C15.437204,11.3644768 15.0816317,11.1421244 14.6606954,10.9751683 C14.2399509,10.808979 13.7756943,10.7257885 13.2681172,10.7257885 C13.1931691,10.7257885 13.0179707,10.8149212 12.743097,10.9937616 C12.468415,11.1735604 12.1584634,11.3734859 11.8124752,11.5935382 C11.4664871,11.8145489 11.0166067,12.0144745 10.4632174,12.1933149 C9.90906139,12.3723469 9.35356356,12.4622463 8.79499881,12.4622463 C8.23720079,12.4622463 7.68151129,12.3723469 7.12754693,12.1933149 C6.57339089,12.0144745 6.12331881,11.8145489 5.77828911,11.5935382 C5.43230099,11.3734859 5.12234931,11.1735604 4.84747564,10.9937616 C4.57260198,10.8149212 4.39740356,10.7257885 4.32264713,10.7257885 C3.81487842,10.7257885 3.35004673,10.808979 2.92987723,10.9751683 C2.50913267,11.1421244 2.15260198,11.3644768 1.86143525,11.6437592 C1.57007683,11.9230416 1.3118796,12.2600206 1.08722693,12.656038 C0.861807525,13.0514804 0.682775446,13.4572737 0.549555644,13.8736095 C0.416335842,14.2899453 0.306309703,14.7421259 0.218710495,15.2295762 C0.131111287,15.7170265 0.0726479208,16.1707406 0.0435120792,16.5914851 C0.0141845545,17.0116547 0,17.4429418 0,17.8847715 C0,18.8836325 0.304009505,19.6727921 0.912028515,20.2522503 C1.52004752,20.8303667 2.32799208,21.12 3.3356705,21.12 L14.2556689,21.12 C15.263539,21.12 16.0707168,20.8303667 16.6795026,20.2522503 C17.2875216,19.6727921 17.5913394,18.8836325 17.5913394,17.8847715 C17.5913394,17.4429418 17.5763881,17.0116547 17.5472523,16.5914851 L17.5472523,16.5914851 Z" id="Fill-3"></path>
            </g>
        </g>
    </g>
</svg>